<mxfile host="app.diagrams.net" agent="Mozilla/5.0 (Windows NT 10.0; Win64; x64) AppleWebKit/537.36 (KHTML, like Gecko) Chrome/131.0.0.0 Safari/537.36" version="26.0.1">
  <diagram name="Page-1" id="1NH9oULuJsoeyYaaJ3u-">
    <mxGraphModel dx="1050" dy="530" grid="1" gridSize="10" guides="1" tooltips="1" connect="1" arrows="1" fold="1" page="1" pageScale="1" pageWidth="850" pageHeight="1100" math="0" shadow="0">
      <root>
        <mxCell id="0" />
        <mxCell id="1" parent="0" />
        <mxCell id="xgcp_vtnHsurbQkd6DjJ-1" value="user" style="whiteSpace=wrap;html=1;labelBackgroundColor=none;fillColor=#BC6C25;strokeColor=#DDA15E;fontColor=#FEFAE0;" parent="1" vertex="1">
          <mxGeometry x="921.25" y="1010" width="70" height="30" as="geometry" />
        </mxCell>
        <mxCell id="xgcp_vtnHsurbQkd6DjJ-2" value="product" style="whiteSpace=wrap;html=1;labelBackgroundColor=none;fillColor=#BC6C25;strokeColor=#DDA15E;fontColor=#FEFAE0;" parent="1" vertex="1">
          <mxGeometry x="1340" y="1240" width="90" height="30" as="geometry" />
        </mxCell>
        <mxCell id="xgcp_vtnHsurbQkd6DjJ-3" value="order" style="whiteSpace=wrap;html=1;labelBackgroundColor=none;fillColor=#BC6C25;strokeColor=#DDA15E;fontColor=#FEFAE0;" parent="1" vertex="1">
          <mxGeometry x="1315" y="980" width="100" height="30" as="geometry" />
        </mxCell>
        <mxCell id="xgcp_vtnHsurbQkd6DjJ-4" value="category" style="whiteSpace=wrap;html=1;labelBackgroundColor=none;fillColor=#BC6C25;strokeColor=#DDA15E;fontColor=#FEFAE0;" parent="1" vertex="1">
          <mxGeometry x="1770" y="1270" width="110" height="30" as="geometry" />
        </mxCell>
        <mxCell id="xgcp_vtnHsurbQkd6DjJ-5" value="goldbank" style="whiteSpace=wrap;html=1;labelBackgroundColor=none;fillColor=#BC6C25;strokeColor=#DDA15E;fontColor=#FEFAE0;" parent="1" vertex="1">
          <mxGeometry x="796.25" y="747.5" width="100" height="30" as="geometry" />
        </mxCell>
        <mxCell id="xgcp_vtnHsurbQkd6DjJ-6" value="training" style="whiteSpace=wrap;html=1;labelBackgroundColor=none;fillColor=#BC6C25;strokeColor=#DDA15E;fontColor=#FEFAE0;" parent="1" vertex="1">
          <mxGeometry x="1150" y="597.5" width="100" height="30" as="geometry" />
        </mxCell>
        <mxCell id="xgcp_vtnHsurbQkd6DjJ-7" value="cart" style="whiteSpace=wrap;html=1;labelBackgroundColor=none;fillColor=#BC6C25;strokeColor=#DDA15E;fontColor=#FEFAE0;" parent="1" vertex="1">
          <mxGeometry x="555" y="1060" width="100" height="30" as="geometry" />
        </mxCell>
        <mxCell id="xgcp_vtnHsurbQkd6DjJ-8" value="support" style="whiteSpace=wrap;html=1;labelBackgroundColor=none;fillColor=#BC6C25;strokeColor=#DDA15E;fontColor=#FEFAE0;" parent="1" vertex="1">
          <mxGeometry x="766.25" y="1270" width="90" height="30" as="geometry" />
        </mxCell>
        <mxCell id="xgcp_vtnHsurbQkd6DjJ-9" value="goldprice" style="whiteSpace=wrap;html=1;labelBackgroundColor=none;fillColor=#BC6C25;strokeColor=#DDA15E;fontColor=#FEFAE0;" parent="1" vertex="1">
          <mxGeometry x="806.25" y="460" width="100" height="30" as="geometry" />
        </mxCell>
        <mxCell id="xgcp_vtnHsurbQkd6DjJ-10" value="email" style="ellipse;whiteSpace=wrap;html=1;labelBackgroundColor=none;fillColor=#BC6C25;strokeColor=#DDA15E;fontColor=#FEFAE0;" parent="1" vertex="1">
          <mxGeometry x="821.25" y="980" width="50" height="30" as="geometry" />
        </mxCell>
        <mxCell id="xgcp_vtnHsurbQkd6DjJ-12" value="name" style="ellipse;whiteSpace=wrap;html=1;labelBackgroundColor=none;fillColor=#BC6C25;strokeColor=#DDA15E;fontColor=#FEFAE0;" parent="1" vertex="1">
          <mxGeometry x="856.25" y="1060" width="50" height="30" as="geometry" />
        </mxCell>
        <mxCell id="xgcp_vtnHsurbQkd6DjJ-13" value="&lt;u&gt;&lt;font style=&quot;line-height: 200%;&quot;&gt;userid&lt;/font&gt;&lt;/u&gt;" style="ellipse;whiteSpace=wrap;html=1;labelBackgroundColor=none;fillColor=#BC6C25;strokeColor=#DDA15E;fontColor=#FEFAE0;" parent="1" vertex="1">
          <mxGeometry x="921.25" y="930" width="60" height="32.5" as="geometry" />
        </mxCell>
        <mxCell id="xgcp_vtnHsurbQkd6DjJ-14" value="password" style="ellipse;whiteSpace=wrap;html=1;labelBackgroundColor=none;fillColor=#BC6C25;strokeColor=#DDA15E;fontColor=#FEFAE0;" parent="1" vertex="1">
          <mxGeometry x="861.25" y="935" width="60" height="50" as="geometry" />
        </mxCell>
        <mxCell id="xgcp_vtnHsurbQkd6DjJ-20" value="address" style="ellipse;whiteSpace=wrap;html=1;strokeColor=#DDA15E;fontColor=#FEFAE0;fillColor=#BC6C25;labelBackgroundColor=none;" parent="1" vertex="1">
          <mxGeometry x="1026.25" y="1050" width="60" height="30" as="geometry" />
        </mxCell>
        <mxCell id="xgcp_vtnHsurbQkd6DjJ-21" value="phone number" style="ellipse;whiteSpace=wrap;html=1;strokeColor=#DDA15E;fontColor=#FEFAE0;fillColor=#BC6C25;labelBackgroundColor=none;" parent="1" vertex="1">
          <mxGeometry x="956.25" y="1080" width="55" height="40" as="geometry" />
        </mxCell>
        <mxCell id="xgcp_vtnHsurbQkd6DjJ-22" value="registeration dtae" style="ellipse;whiteSpace=wrap;html=1;strokeColor=#DDA15E;fontColor=#FEFAE0;fillColor=#BC6C25;labelBackgroundColor=none;" parent="1" vertex="1">
          <mxGeometry x="1011.25" y="950" width="80" height="50" as="geometry" />
        </mxCell>
        <mxCell id="xgcp_vtnHsurbQkd6DjJ-23" value="" style="endArrow=none;html=1;rounded=0;strokeColor=#DDA15E;fontColor=default;fillColor=#BC6C25;exitX=0.5;exitY=0;exitDx=0;exitDy=0;labelBackgroundColor=none;" parent="1" source="xgcp_vtnHsurbQkd6DjJ-21" edge="1">
          <mxGeometry width="50" height="50" relative="1" as="geometry">
            <mxPoint x="946.25" y="1110" as="sourcePoint" />
            <mxPoint x="986.25" y="1040" as="targetPoint" />
          </mxGeometry>
        </mxCell>
        <mxCell id="xgcp_vtnHsurbQkd6DjJ-24" value="" style="endArrow=none;html=1;rounded=0;strokeColor=#DDA15E;fontColor=default;fillColor=#BC6C25;exitX=0;exitY=0;exitDx=0;exitDy=0;labelBackgroundColor=none;" parent="1" source="xgcp_vtnHsurbQkd6DjJ-1" edge="1">
          <mxGeometry width="50" height="50" relative="1" as="geometry">
            <mxPoint x="856.25" y="1020" as="sourcePoint" />
            <mxPoint x="906.25" y="980" as="targetPoint" />
          </mxGeometry>
        </mxCell>
        <mxCell id="xgcp_vtnHsurbQkd6DjJ-25" value="" style="endArrow=none;html=1;rounded=0;strokeColor=#DDA15E;fontColor=default;fillColor=#BC6C25;exitX=0.5;exitY=0;exitDx=0;exitDy=0;labelBackgroundColor=none;" parent="1" source="xgcp_vtnHsurbQkd6DjJ-1" edge="1">
          <mxGeometry width="50" height="50" relative="1" as="geometry">
            <mxPoint x="906.25" y="1010" as="sourcePoint" />
            <mxPoint x="956.25" y="960" as="targetPoint" />
          </mxGeometry>
        </mxCell>
        <mxCell id="xgcp_vtnHsurbQkd6DjJ-26" value="" style="endArrow=none;html=1;rounded=0;strokeColor=#DDA15E;fontColor=default;fillColor=#BC6C25;exitX=1;exitY=0;exitDx=0;exitDy=0;labelBackgroundColor=none;" parent="1" source="xgcp_vtnHsurbQkd6DjJ-12" edge="1">
          <mxGeometry width="50" height="50" relative="1" as="geometry">
            <mxPoint x="876.25" y="1090" as="sourcePoint" />
            <mxPoint x="926.25" y="1040" as="targetPoint" />
          </mxGeometry>
        </mxCell>
        <mxCell id="xgcp_vtnHsurbQkd6DjJ-27" value="" style="endArrow=none;html=1;rounded=0;strokeColor=#DDA15E;fontColor=default;fillColor=#BC6C25;entryX=0;entryY=0;entryDx=0;entryDy=0;labelBackgroundColor=none;" parent="1" target="xgcp_vtnHsurbQkd6DjJ-20" edge="1">
          <mxGeometry width="50" height="50" relative="1" as="geometry">
            <mxPoint x="991.25" y="1040" as="sourcePoint" />
            <mxPoint x="1041.25" y="990" as="targetPoint" />
          </mxGeometry>
        </mxCell>
        <mxCell id="xgcp_vtnHsurbQkd6DjJ-28" value="" style="endArrow=none;html=1;rounded=0;strokeColor=#DDA15E;fontColor=default;fillColor=#BC6C25;labelBackgroundColor=none;" parent="1" edge="1">
          <mxGeometry width="50" height="50" relative="1" as="geometry">
            <mxPoint x="991.25" y="1012.5" as="sourcePoint" />
            <mxPoint x="1016.25" y="990" as="targetPoint" />
          </mxGeometry>
        </mxCell>
        <mxCell id="xgcp_vtnHsurbQkd6DjJ-32" value="" style="endArrow=none;html=1;rounded=0;strokeColor=#DDA15E;fontColor=default;fillColor=#BC6C25;entryX=0;entryY=0.25;entryDx=0;entryDy=0;labelBackgroundColor=none;exitX=1.007;exitY=0.76;exitDx=0;exitDy=0;exitPerimeter=0;" parent="1" target="xgcp_vtnHsurbQkd6DjJ-1" edge="1" source="xgcp_vtnHsurbQkd6DjJ-10">
          <mxGeometry width="50" height="50" relative="1" as="geometry">
            <mxPoint x="876.25" y="1020" as="sourcePoint" />
            <mxPoint x="926.25" y="970" as="targetPoint" />
          </mxGeometry>
        </mxCell>
        <mxCell id="xgcp_vtnHsurbQkd6DjJ-33" value="image url" style="ellipse;whiteSpace=wrap;html=1;strokeColor=#DDA15E;fontColor=#FEFAE0;fillColor=#BC6C25;labelBackgroundColor=none;" parent="1" vertex="1">
          <mxGeometry x="1250" y="1180" width="65" height="40" as="geometry" />
        </mxCell>
        <mxCell id="xgcp_vtnHsurbQkd6DjJ-34" value="&lt;u&gt;productid&lt;/u&gt;" style="ellipse;whiteSpace=wrap;html=1;strokeColor=#DDA15E;fontColor=#FEFAE0;fillColor=#BC6C25;labelBackgroundColor=none;" parent="1" vertex="1">
          <mxGeometry x="1470" y="1270" width="60" height="40" as="geometry" />
        </mxCell>
        <mxCell id="xgcp_vtnHsurbQkd6DjJ-35" value="name" style="ellipse;whiteSpace=wrap;html=1;strokeColor=#DDA15E;fontColor=#FEFAE0;fillColor=#BC6C25;labelBackgroundColor=none;" parent="1" vertex="1">
          <mxGeometry x="1250" y="1240" width="50" height="40" as="geometry" />
        </mxCell>
        <mxCell id="xgcp_vtnHsurbQkd6DjJ-36" value="description" style="ellipse;whiteSpace=wrap;html=1;strokeColor=#DDA15E;fontColor=#FEFAE0;fillColor=#BC6C25;labelBackgroundColor=none;" parent="1" vertex="1">
          <mxGeometry x="1450" y="1170" width="60" height="50" as="geometry" />
        </mxCell>
        <mxCell id="xgcp_vtnHsurbQkd6DjJ-37" value="price" style="ellipse;whiteSpace=wrap;html=1;strokeColor=#DDA15E;fontColor=#FEFAE0;fillColor=#BC6C25;labelBackgroundColor=none;" parent="1" vertex="1">
          <mxGeometry x="1300" y="1300" width="60" height="40" as="geometry" />
        </mxCell>
        <mxCell id="xgcp_vtnHsurbQkd6DjJ-38" value="موجودی" style="ellipse;whiteSpace=wrap;html=1;strokeColor=#DDA15E;fontColor=#FEFAE0;fillColor=#BC6C25;labelBackgroundColor=none;" parent="1" vertex="1">
          <mxGeometry x="1410" y="1300" width="55" height="30" as="geometry" />
        </mxCell>
        <mxCell id="xgcp_vtnHsurbQkd6DjJ-39" value="categoryid" style="ellipse;whiteSpace=wrap;html=1;strokeColor=#DDA15E;fontColor=#FEFAE0;fillColor=#BC6C25;labelBackgroundColor=none;" parent="1" vertex="1">
          <mxGeometry x="1350" y="1160" width="70" height="40" as="geometry" />
        </mxCell>
        <mxCell id="xgcp_vtnHsurbQkd6DjJ-41" value="" style="endArrow=none;html=1;rounded=0;strokeColor=#DDA15E;fontColor=default;fillColor=#BC6C25;exitX=0.5;exitY=0;exitDx=0;exitDy=0;labelBackgroundColor=none;" parent="1" source="xgcp_vtnHsurbQkd6DjJ-2" edge="1">
          <mxGeometry width="50" height="50" relative="1" as="geometry">
            <mxPoint x="1340" y="1250" as="sourcePoint" />
            <mxPoint x="1390" y="1200" as="targetPoint" />
          </mxGeometry>
        </mxCell>
        <mxCell id="xgcp_vtnHsurbQkd6DjJ-42" value="" style="endArrow=none;html=1;rounded=0;strokeColor=#DDA15E;fontColor=default;fillColor=#BC6C25;exitX=1;exitY=0;exitDx=0;exitDy=0;labelBackgroundColor=none;" parent="1" source="xgcp_vtnHsurbQkd6DjJ-2" edge="1">
          <mxGeometry width="50" height="50" relative="1" as="geometry">
            <mxPoint x="1410" y="1260" as="sourcePoint" />
            <mxPoint x="1460" y="1210" as="targetPoint" />
          </mxGeometry>
        </mxCell>
        <mxCell id="xgcp_vtnHsurbQkd6DjJ-43" value="" style="endArrow=none;html=1;rounded=0;strokeColor=#DDA15E;fontColor=default;fillColor=#BC6C25;exitX=1;exitY=0.75;exitDx=0;exitDy=0;labelBackgroundColor=none;entryX=0;entryY=0.5;entryDx=0;entryDy=0;" parent="1" source="xgcp_vtnHsurbQkd6DjJ-2" edge="1" target="xgcp_vtnHsurbQkd6DjJ-34">
          <mxGeometry width="50" height="50" relative="1" as="geometry">
            <mxPoint x="1430" y="1310" as="sourcePoint" />
            <mxPoint x="1480" y="1260" as="targetPoint" />
          </mxGeometry>
        </mxCell>
        <mxCell id="xgcp_vtnHsurbQkd6DjJ-44" value="" style="endArrow=none;html=1;rounded=0;strokeColor=#DDA15E;fontColor=default;fillColor=#BC6C25;exitX=0;exitY=0.25;exitDx=0;exitDy=0;labelBackgroundColor=none;" parent="1" source="xgcp_vtnHsurbQkd6DjJ-2" edge="1">
          <mxGeometry width="50" height="50" relative="1" as="geometry">
            <mxPoint x="1257.5" y="1260" as="sourcePoint" />
            <mxPoint x="1307.5" y="1210" as="targetPoint" />
          </mxGeometry>
        </mxCell>
        <mxCell id="xgcp_vtnHsurbQkd6DjJ-45" value="" style="endArrow=none;html=1;rounded=0;strokeColor=#DDA15E;fontColor=default;fillColor=#BC6C25;exitX=0;exitY=0.5;exitDx=0;exitDy=0;labelBackgroundColor=none;" parent="1" source="xgcp_vtnHsurbQkd6DjJ-2" edge="1">
          <mxGeometry width="50" height="50" relative="1" as="geometry">
            <mxPoint x="1250" y="1310" as="sourcePoint" />
            <mxPoint x="1300" y="1260" as="targetPoint" />
          </mxGeometry>
        </mxCell>
        <mxCell id="xgcp_vtnHsurbQkd6DjJ-46" value="" style="endArrow=none;html=1;rounded=0;strokeColor=#DDA15E;fontColor=default;fillColor=#BC6C25;labelBackgroundColor=none;" parent="1" edge="1">
          <mxGeometry width="50" height="50" relative="1" as="geometry">
            <mxPoint x="1330" y="1300" as="sourcePoint" />
            <mxPoint x="1350" y="1270" as="targetPoint" />
          </mxGeometry>
        </mxCell>
        <mxCell id="xgcp_vtnHsurbQkd6DjJ-47" value="" style="endArrow=none;html=1;rounded=0;strokeColor=#DDA15E;fontColor=default;fillColor=#BC6C25;exitX=0.5;exitY=0;exitDx=0;exitDy=0;labelBackgroundColor=none;" parent="1" source="xgcp_vtnHsurbQkd6DjJ-38" edge="1">
          <mxGeometry width="50" height="50" relative="1" as="geometry">
            <mxPoint x="1380" y="1320" as="sourcePoint" />
            <mxPoint x="1430" y="1270" as="targetPoint" />
          </mxGeometry>
        </mxCell>
        <mxCell id="xgcp_vtnHsurbQkd6DjJ-48" value="&lt;u&gt;id&lt;/u&gt;" style="ellipse;whiteSpace=wrap;html=1;strokeColor=#DDA15E;fontColor=#FEFAE0;fillColor=#BC6C25;labelBackgroundColor=none;" parent="1" vertex="1">
          <mxGeometry x="1175" y="542.5" width="50" height="20" as="geometry" />
        </mxCell>
        <mxCell id="ZLoV1CHloqVsXlXET13_-1" value="title" style="ellipse;whiteSpace=wrap;html=1;strokeColor=#DDA15E;fontColor=#FEFAE0;fillColor=#BC6C25;labelBackgroundColor=none;" vertex="1" parent="1">
          <mxGeometry x="1175" y="652.5" width="50" height="40" as="geometry" />
        </mxCell>
        <mxCell id="ZLoV1CHloqVsXlXET13_-2" value="content type" style="ellipse;whiteSpace=wrap;html=1;strokeColor=#DDA15E;fontColor=#FEFAE0;fillColor=#BC6C25;labelBackgroundColor=none;" vertex="1" parent="1">
          <mxGeometry x="1050" y="587.5" width="60" height="40" as="geometry" />
        </mxCell>
        <mxCell id="ZLoV1CHloqVsXlXET13_-3" value="description" style="ellipse;whiteSpace=wrap;html=1;strokeColor=#DDA15E;fontColor=#FEFAE0;fillColor=#BC6C25;labelBackgroundColor=none;" vertex="1" parent="1">
          <mxGeometry x="1300" y="587.5" width="70" height="40" as="geometry" />
        </mxCell>
        <mxCell id="ZLoV1CHloqVsXlXET13_-4" value="" style="endArrow=none;html=1;rounded=0;strokeColor=#DDA15E;fontColor=default;fillColor=#BC6C25;labelBackgroundColor=none;" edge="1" parent="1" source="ZLoV1CHloqVsXlXET13_-1">
          <mxGeometry width="50" height="50" relative="1" as="geometry">
            <mxPoint x="1155" y="672.5" as="sourcePoint" />
            <mxPoint x="1205" y="622.5" as="targetPoint" />
          </mxGeometry>
        </mxCell>
        <mxCell id="ZLoV1CHloqVsXlXET13_-5" value="" style="endArrow=none;html=1;rounded=0;strokeColor=#DDA15E;fontColor=default;fillColor=#BC6C25;exitX=1;exitY=0.75;exitDx=0;exitDy=0;labelBackgroundColor=none;" edge="1" parent="1" source="xgcp_vtnHsurbQkd6DjJ-6">
          <mxGeometry width="50" height="50" relative="1" as="geometry">
            <mxPoint x="1250" y="652.5" as="sourcePoint" />
            <mxPoint x="1300" y="602.5" as="targetPoint" />
          </mxGeometry>
        </mxCell>
        <mxCell id="ZLoV1CHloqVsXlXET13_-6" value="" style="endArrow=none;html=1;rounded=0;strokeColor=#DDA15E;fontColor=default;fillColor=#BC6C25;exitX=1;exitY=0.5;exitDx=0;exitDy=0;labelBackgroundColor=none;" edge="1" parent="1" source="ZLoV1CHloqVsXlXET13_-2">
          <mxGeometry width="50" height="50" relative="1" as="geometry">
            <mxPoint x="1100" y="652.5" as="sourcePoint" />
            <mxPoint x="1150" y="602.5" as="targetPoint" />
          </mxGeometry>
        </mxCell>
        <mxCell id="ZLoV1CHloqVsXlXET13_-7" value="" style="endArrow=none;html=1;rounded=0;strokeColor=#DDA15E;fontColor=default;fillColor=#BC6C25;exitX=0.5;exitY=0;exitDx=0;exitDy=0;labelBackgroundColor=none;" edge="1" parent="1" source="xgcp_vtnHsurbQkd6DjJ-6">
          <mxGeometry width="50" height="50" relative="1" as="geometry">
            <mxPoint x="1150" y="612.5" as="sourcePoint" />
            <mxPoint x="1200" y="562.5" as="targetPoint" />
          </mxGeometry>
        </mxCell>
        <mxCell id="ZLoV1CHloqVsXlXET13_-8" value="&lt;u&gt;cart id&lt;/u&gt;" style="ellipse;whiteSpace=wrap;html=1;strokeColor=#DDA15E;fontColor=#FEFAE0;fillColor=#BC6C25;labelBackgroundColor=none;" vertex="1" parent="1">
          <mxGeometry x="565" y="1000" width="60" height="40" as="geometry" />
        </mxCell>
        <mxCell id="ZLoV1CHloqVsXlXET13_-9" value="product id" style="ellipse;whiteSpace=wrap;html=1;strokeColor=#DDA15E;fontColor=#FEFAE0;fillColor=#BC6C25;labelBackgroundColor=none;" vertex="1" parent="1">
          <mxGeometry x="450" y="1050" width="65" height="50" as="geometry" />
        </mxCell>
        <mxCell id="ZLoV1CHloqVsXlXET13_-10" value="quantity" style="ellipse;whiteSpace=wrap;html=1;strokeColor=#DDA15E;fontColor=#FEFAE0;fillColor=#BC6C25;labelBackgroundColor=none;" vertex="1" parent="1">
          <mxGeometry x="685" y="1055" width="60" height="40" as="geometry" />
        </mxCell>
        <mxCell id="ZLoV1CHloqVsXlXET13_-11" value="" style="endArrow=none;html=1;rounded=0;strokeColor=#DDA15E;fontColor=default;fillColor=#BC6C25;exitX=0.5;exitY=0;exitDx=0;exitDy=0;labelBackgroundColor=none;" edge="1" parent="1" source="xgcp_vtnHsurbQkd6DjJ-7">
          <mxGeometry width="50" height="50" relative="1" as="geometry">
            <mxPoint x="555" y="1090" as="sourcePoint" />
            <mxPoint x="605" y="1040" as="targetPoint" />
          </mxGeometry>
        </mxCell>
        <mxCell id="ZLoV1CHloqVsXlXET13_-12" value="" style="endArrow=none;html=1;rounded=0;strokeColor=#DDA15E;fontColor=default;fillColor=#BC6C25;entryX=0;entryY=0.5;entryDx=0;entryDy=0;labelBackgroundColor=none;" edge="1" parent="1" target="xgcp_vtnHsurbQkd6DjJ-7">
          <mxGeometry width="50" height="50" relative="1" as="geometry">
            <mxPoint x="505" y="1080" as="sourcePoint" />
            <mxPoint x="555" y="1030" as="targetPoint" />
          </mxGeometry>
        </mxCell>
        <mxCell id="ZLoV1CHloqVsXlXET13_-13" value="" style="endArrow=none;html=1;rounded=0;strokeColor=#DDA15E;fontColor=default;fillColor=#BC6C25;exitX=1;exitY=0.5;exitDx=0;exitDy=0;labelBackgroundColor=none;" edge="1" parent="1" source="xgcp_vtnHsurbQkd6DjJ-7">
          <mxGeometry width="50" height="50" relative="1" as="geometry">
            <mxPoint x="635" y="1120" as="sourcePoint" />
            <mxPoint x="685" y="1070" as="targetPoint" />
          </mxGeometry>
        </mxCell>
        <mxCell id="ZLoV1CHloqVsXlXET13_-14" value="message" style="ellipse;whiteSpace=wrap;html=1;strokeColor=#DDA15E;fontColor=#FEFAE0;fillColor=#BC6C25;labelBackgroundColor=none;" vertex="1" parent="1">
          <mxGeometry x="766.25" y="1200" width="70" height="40" as="geometry" />
        </mxCell>
        <mxCell id="ZLoV1CHloqVsXlXET13_-15" value="user id" style="ellipse;whiteSpace=wrap;html=1;strokeColor=#DDA15E;fontColor=#FEFAE0;fillColor=#BC6C25;labelBackgroundColor=none;" vertex="1" parent="1">
          <mxGeometry x="661.25" y="1265" width="55" height="40" as="geometry" />
        </mxCell>
        <mxCell id="ZLoV1CHloqVsXlXET13_-16" value="&lt;u&gt;support id&lt;/u&gt;" style="ellipse;whiteSpace=wrap;html=1;strokeColor=#DDA15E;fontColor=#FEFAE0;fillColor=#BC6C25;labelBackgroundColor=none;" vertex="1" parent="1">
          <mxGeometry x="896.25" y="1260" width="60" height="50" as="geometry" />
        </mxCell>
        <mxCell id="ZLoV1CHloqVsXlXET13_-17" value="date" style="ellipse;whiteSpace=wrap;html=1;strokeColor=#DDA15E;fontColor=#FEFAE0;fillColor=#BC6C25;labelBackgroundColor=none;" vertex="1" parent="1">
          <mxGeometry x="836.25" y="1330" width="50" height="40" as="geometry" />
        </mxCell>
        <mxCell id="ZLoV1CHloqVsXlXET13_-18" value="response" style="ellipse;whiteSpace=wrap;html=1;strokeColor=#DDA15E;fontColor=#FEFAE0;fillColor=#BC6C25;labelBackgroundColor=none;" vertex="1" parent="1">
          <mxGeometry x="731.25" y="1330" width="50" height="40" as="geometry" />
        </mxCell>
        <mxCell id="ZLoV1CHloqVsXlXET13_-19" value="" style="endArrow=none;html=1;rounded=0;strokeColor=#DDA15E;fontColor=default;fillColor=#BC6C25;entryX=0;entryY=0.5;entryDx=0;entryDy=0;labelBackgroundColor=none;" edge="1" parent="1" target="xgcp_vtnHsurbQkd6DjJ-8">
          <mxGeometry width="50" height="50" relative="1" as="geometry">
            <mxPoint x="716.25" y="1290" as="sourcePoint" />
            <mxPoint x="766.25" y="1240" as="targetPoint" />
          </mxGeometry>
        </mxCell>
        <mxCell id="ZLoV1CHloqVsXlXET13_-20" value="" style="endArrow=none;html=1;rounded=0;strokeColor=#DDA15E;fontColor=default;fillColor=#BC6C25;exitX=0.5;exitY=0;exitDx=0;exitDy=0;labelBackgroundColor=none;" edge="1" parent="1" source="xgcp_vtnHsurbQkd6DjJ-8">
          <mxGeometry width="50" height="50" relative="1" as="geometry">
            <mxPoint x="756.25" y="1290" as="sourcePoint" />
            <mxPoint x="806.25" y="1240" as="targetPoint" />
          </mxGeometry>
        </mxCell>
        <mxCell id="ZLoV1CHloqVsXlXET13_-21" value="" style="endArrow=none;html=1;rounded=0;strokeColor=#DDA15E;fontColor=default;fillColor=#BC6C25;exitX=1;exitY=0.5;exitDx=0;exitDy=0;labelBackgroundColor=none;" edge="1" parent="1" source="xgcp_vtnHsurbQkd6DjJ-8">
          <mxGeometry width="50" height="50" relative="1" as="geometry">
            <mxPoint x="846.25" y="1330" as="sourcePoint" />
            <mxPoint x="896.25" y="1280" as="targetPoint" />
          </mxGeometry>
        </mxCell>
        <mxCell id="ZLoV1CHloqVsXlXET13_-22" value="" style="endArrow=none;html=1;rounded=0;strokeColor=#DDA15E;fontColor=default;fillColor=#BC6C25;labelBackgroundColor=none;" edge="1" parent="1" source="ZLoV1CHloqVsXlXET13_-17">
          <mxGeometry width="50" height="50" relative="1" as="geometry">
            <mxPoint x="806.25" y="1350" as="sourcePoint" />
            <mxPoint x="856.25" y="1300" as="targetPoint" />
          </mxGeometry>
        </mxCell>
        <mxCell id="ZLoV1CHloqVsXlXET13_-23" value="" style="endArrow=none;html=1;rounded=0;strokeColor=#DDA15E;fontColor=default;fillColor=#BC6C25;labelBackgroundColor=none;" edge="1" parent="1" source="ZLoV1CHloqVsXlXET13_-18">
          <mxGeometry width="50" height="50" relative="1" as="geometry">
            <mxPoint x="736.25" y="1350" as="sourcePoint" />
            <mxPoint x="786.25" y="1300" as="targetPoint" />
          </mxGeometry>
        </mxCell>
        <mxCell id="ZLoV1CHloqVsXlXET13_-24" value="total amount" style="ellipse;whiteSpace=wrap;html=1;strokeColor=#DDA15E;fontColor=#FEFAE0;fillColor=#BC6C25;labelBackgroundColor=none;" vertex="1" parent="1">
          <mxGeometry x="1325" y="900" width="70" height="50" as="geometry" />
        </mxCell>
        <mxCell id="ZLoV1CHloqVsXlXET13_-25" value="status" style="ellipse;whiteSpace=wrap;html=1;strokeColor=#DDA15E;fontColor=#FEFAE0;fillColor=#BC6C25;labelBackgroundColor=none;" vertex="1" parent="1">
          <mxGeometry x="1235" y="975" width="50" height="40" as="geometry" />
        </mxCell>
        <mxCell id="ZLoV1CHloqVsXlXET13_-26" value="&lt;u&gt;order id&lt;/u&gt;" style="ellipse;whiteSpace=wrap;html=1;strokeColor=#DDA15E;fontColor=#FEFAE0;fillColor=#BC6C25;labelBackgroundColor=none;" vertex="1" parent="1">
          <mxGeometry x="1435" y="935" width="70" height="40" as="geometry" />
        </mxCell>
        <mxCell id="ZLoV1CHloqVsXlXET13_-27" value="user id" style="ellipse;whiteSpace=wrap;html=1;strokeColor=#DDA15E;fontColor=#FEFAE0;fillColor=#BC6C25;labelBackgroundColor=none;" vertex="1" parent="1">
          <mxGeometry x="1425" y="1040" width="60" height="45" as="geometry" />
        </mxCell>
        <mxCell id="ZLoV1CHloqVsXlXET13_-28" value="order date" style="ellipse;whiteSpace=wrap;html=1;strokeColor=#DDA15E;fontColor=#FEFAE0;fillColor=#BC6C25;labelBackgroundColor=none;" vertex="1" parent="1">
          <mxGeometry x="1345" y="1050" width="50" height="50" as="geometry" />
        </mxCell>
        <mxCell id="ZLoV1CHloqVsXlXET13_-29" value="" style="endArrow=none;html=1;rounded=0;strokeColor=#DDA15E;fontColor=default;fillColor=#BC6C25;exitX=0.5;exitY=0;exitDx=0;exitDy=0;labelBackgroundColor=none;" edge="1" parent="1" source="xgcp_vtnHsurbQkd6DjJ-3">
          <mxGeometry width="50" height="50" relative="1" as="geometry">
            <mxPoint x="1315" y="1000" as="sourcePoint" />
            <mxPoint x="1365" y="950" as="targetPoint" />
          </mxGeometry>
        </mxCell>
        <mxCell id="ZLoV1CHloqVsXlXET13_-30" value="" style="endArrow=none;html=1;rounded=0;strokeColor=#DDA15E;fontColor=default;fillColor=#BC6C25;exitX=1;exitY=0.5;exitDx=0;exitDy=0;labelBackgroundColor=none;" edge="1" parent="1" source="ZLoV1CHloqVsXlXET13_-25">
          <mxGeometry width="50" height="50" relative="1" as="geometry">
            <mxPoint x="1265" y="1040" as="sourcePoint" />
            <mxPoint x="1315" y="990" as="targetPoint" />
          </mxGeometry>
        </mxCell>
        <mxCell id="ZLoV1CHloqVsXlXET13_-31" value="" style="endArrow=none;html=1;rounded=0;strokeColor=#DDA15E;fontColor=default;fillColor=#BC6C25;labelBackgroundColor=none;" edge="1" parent="1" source="ZLoV1CHloqVsXlXET13_-28">
          <mxGeometry width="50" height="50" relative="1" as="geometry">
            <mxPoint x="1295" y="1060" as="sourcePoint" />
            <mxPoint x="1345" y="1010" as="targetPoint" />
          </mxGeometry>
        </mxCell>
        <mxCell id="ZLoV1CHloqVsXlXET13_-32" value="" style="endArrow=none;html=1;rounded=0;strokeColor=#DDA15E;fontColor=default;fillColor=#BC6C25;labelBackgroundColor=none;" edge="1" parent="1">
          <mxGeometry width="50" height="50" relative="1" as="geometry">
            <mxPoint x="1415" y="1000" as="sourcePoint" />
            <mxPoint x="1445" y="965" as="targetPoint" />
          </mxGeometry>
        </mxCell>
        <mxCell id="ZLoV1CHloqVsXlXET13_-33" value="" style="endArrow=none;html=1;rounded=0;strokeColor=#DDA15E;fontColor=default;fillColor=#BC6C25;labelBackgroundColor=none;" edge="1" parent="1" source="ZLoV1CHloqVsXlXET13_-27">
          <mxGeometry width="50" height="50" relative="1" as="geometry">
            <mxPoint x="1365" y="1060" as="sourcePoint" />
            <mxPoint x="1415" y="1010" as="targetPoint" />
          </mxGeometry>
        </mxCell>
        <mxCell id="ZLoV1CHloqVsXlXET13_-34" value="&lt;u&gt;category id&lt;/u&gt;" style="ellipse;whiteSpace=wrap;html=1;strokeColor=#DDA15E;fontColor=#FEFAE0;fillColor=#BC6C25;labelBackgroundColor=none;" vertex="1" parent="1">
          <mxGeometry x="1900" y="1230" width="70" height="40" as="geometry" />
        </mxCell>
        <mxCell id="ZLoV1CHloqVsXlXET13_-35" value="name" style="ellipse;whiteSpace=wrap;html=1;strokeColor=#DDA15E;fontColor=#FEFAE0;fillColor=#BC6C25;labelBackgroundColor=none;" vertex="1" parent="1">
          <mxGeometry x="1840" y="1330" width="50" height="40" as="geometry" />
        </mxCell>
        <mxCell id="ZLoV1CHloqVsXlXET13_-36" value="description" style="ellipse;whiteSpace=wrap;html=1;strokeColor=#DDA15E;fontColor=#FEFAE0;fillColor=#BC6C25;labelBackgroundColor=none;" vertex="1" parent="1">
          <mxGeometry x="1790" y="1200" width="70" height="50" as="geometry" />
        </mxCell>
        <mxCell id="ZLoV1CHloqVsXlXET13_-37" value="" style="endArrow=none;html=1;rounded=0;strokeColor=#DDA15E;fontColor=default;fillColor=#BC6C25;labelBackgroundColor=none;" edge="1" parent="1">
          <mxGeometry width="50" height="50" relative="1" as="geometry">
            <mxPoint x="1880" y="1290" as="sourcePoint" />
            <mxPoint x="1910" y="1260" as="targetPoint" />
          </mxGeometry>
        </mxCell>
        <mxCell id="ZLoV1CHloqVsXlXET13_-38" value="" style="endArrow=none;html=1;rounded=0;strokeColor=#DDA15E;fontColor=default;fillColor=#BC6C25;labelBackgroundColor=none;" edge="1" parent="1" source="ZLoV1CHloqVsXlXET13_-35">
          <mxGeometry width="50" height="50" relative="1" as="geometry">
            <mxPoint x="1830" y="1350" as="sourcePoint" />
            <mxPoint x="1880" y="1300" as="targetPoint" />
          </mxGeometry>
        </mxCell>
        <mxCell id="ZLoV1CHloqVsXlXET13_-39" value="" style="endArrow=none;html=1;rounded=0;strokeColor=#DDA15E;fontColor=default;fillColor=#BC6C25;labelBackgroundColor=none;" edge="1" parent="1" source="xgcp_vtnHsurbQkd6DjJ-4">
          <mxGeometry width="50" height="50" relative="1" as="geometry">
            <mxPoint x="1780" y="1300" as="sourcePoint" />
            <mxPoint x="1830" y="1250" as="targetPoint" />
          </mxGeometry>
        </mxCell>
        <mxCell id="ZLoV1CHloqVsXlXET13_-40" value="payment" style="rounded=0;whiteSpace=wrap;html=1;strokeColor=#DDA15E;fontColor=#FEFAE0;fillColor=#BC6C25;labelBackgroundColor=none;" vertex="1" parent="1">
          <mxGeometry x="1490" y="667.5" width="90" height="30" as="geometry" />
        </mxCell>
        <mxCell id="ZLoV1CHloqVsXlXET13_-41" value="payment method" style="ellipse;whiteSpace=wrap;html=1;strokeColor=#DDA15E;fontColor=#FEFAE0;fillColor=#BC6C25;labelBackgroundColor=none;" vertex="1" parent="1">
          <mxGeometry x="1525" y="737.5" width="80" height="50" as="geometry" />
        </mxCell>
        <mxCell id="ZLoV1CHloqVsXlXET13_-42" value="&lt;u&gt;payment id&lt;/u&gt;" style="ellipse;whiteSpace=wrap;html=1;strokeColor=#DDA15E;fontColor=#FEFAE0;fillColor=#BC6C25;labelBackgroundColor=none;" vertex="1" parent="1">
          <mxGeometry x="1465" y="592.5" width="70" height="40" as="geometry" />
        </mxCell>
        <mxCell id="ZLoV1CHloqVsXlXET13_-43" value="user id" style="ellipse;whiteSpace=wrap;html=1;strokeColor=#DDA15E;fontColor=#FEFAE0;fillColor=#BC6C25;labelBackgroundColor=none;" vertex="1" parent="1">
          <mxGeometry x="1630" y="657.5" width="60" height="50" as="geometry" />
        </mxCell>
        <mxCell id="ZLoV1CHloqVsXlXET13_-44" value="order id" style="ellipse;whiteSpace=wrap;html=1;strokeColor=#DDA15E;fontColor=#FEFAE0;fillColor=#BC6C25;labelBackgroundColor=none;" vertex="1" parent="1">
          <mxGeometry x="1390" y="655" width="60" height="42.5" as="geometry" />
        </mxCell>
        <mxCell id="ZLoV1CHloqVsXlXET13_-45" value="amount" style="ellipse;whiteSpace=wrap;html=1;strokeColor=#DDA15E;fontColor=#FEFAE0;fillColor=#BC6C25;labelBackgroundColor=none;" vertex="1" parent="1">
          <mxGeometry x="1580" y="592.5" width="60" height="50" as="geometry" />
        </mxCell>
        <mxCell id="ZLoV1CHloqVsXlXET13_-46" value="status" style="ellipse;whiteSpace=wrap;html=1;strokeColor=#DDA15E;fontColor=#FEFAE0;fillColor=#BC6C25;labelBackgroundColor=none;" vertex="1" parent="1">
          <mxGeometry x="1420" y="727.5" width="50" height="40" as="geometry" />
        </mxCell>
        <mxCell id="ZLoV1CHloqVsXlXET13_-47" value="date" style="ellipse;whiteSpace=wrap;html=1;strokeColor=#DDA15E;fontColor=#FEFAE0;fillColor=#BC6C25;labelBackgroundColor=none;" vertex="1" parent="1">
          <mxGeometry x="1605" y="727.5" width="60" height="40" as="geometry" />
        </mxCell>
        <mxCell id="ZLoV1CHloqVsXlXET13_-48" value="" style="endArrow=none;html=1;rounded=0;strokeColor=#DDA15E;fontColor=default;fillColor=#BC6C25;exitX=1;exitY=0;exitDx=0;exitDy=0;labelBackgroundColor=none;" edge="1" parent="1" source="ZLoV1CHloqVsXlXET13_-40">
          <mxGeometry width="50" height="50" relative="1" as="geometry">
            <mxPoint x="1550" y="692.5" as="sourcePoint" />
            <mxPoint x="1600" y="642.5" as="targetPoint" />
          </mxGeometry>
        </mxCell>
        <mxCell id="ZLoV1CHloqVsXlXET13_-49" value="" style="endArrow=none;html=1;rounded=0;strokeColor=#DDA15E;fontColor=default;fillColor=#BC6C25;exitX=0.5;exitY=0;exitDx=0;exitDy=0;labelBackgroundColor=none;" edge="1" parent="1" source="ZLoV1CHloqVsXlXET13_-40">
          <mxGeometry width="50" height="50" relative="1" as="geometry">
            <mxPoint x="1465" y="677.5" as="sourcePoint" />
            <mxPoint x="1515" y="627.5" as="targetPoint" />
          </mxGeometry>
        </mxCell>
        <mxCell id="ZLoV1CHloqVsXlXET13_-50" value="" style="endArrow=none;html=1;rounded=0;strokeColor=#DDA15E;fontColor=default;fillColor=#BC6C25;entryX=0;entryY=0.5;entryDx=0;entryDy=0;labelBackgroundColor=none;" edge="1" parent="1" target="ZLoV1CHloqVsXlXET13_-40">
          <mxGeometry width="50" height="50" relative="1" as="geometry">
            <mxPoint x="1445" y="682.5" as="sourcePoint" />
            <mxPoint x="1495" y="632.5" as="targetPoint" />
          </mxGeometry>
        </mxCell>
        <mxCell id="ZLoV1CHloqVsXlXET13_-51" value="" style="endArrow=none;html=1;rounded=0;strokeColor=#DDA15E;fontColor=default;fillColor=#BC6C25;exitX=1;exitY=0.75;exitDx=0;exitDy=0;labelBackgroundColor=none;" edge="1" parent="1" source="ZLoV1CHloqVsXlXET13_-40">
          <mxGeometry width="50" height="50" relative="1" as="geometry">
            <mxPoint x="1580" y="727.5" as="sourcePoint" />
            <mxPoint x="1630" y="677.5" as="targetPoint" />
          </mxGeometry>
        </mxCell>
        <mxCell id="ZLoV1CHloqVsXlXET13_-52" value="" style="endArrow=none;html=1;rounded=0;strokeColor=#DDA15E;fontColor=default;fillColor=#BC6C25;exitX=0.911;exitY=0.893;exitDx=0;exitDy=0;exitPerimeter=0;labelBackgroundColor=none;" edge="1" parent="1" source="ZLoV1CHloqVsXlXET13_-40">
          <mxGeometry width="50" height="50" relative="1" as="geometry">
            <mxPoint x="1560" y="787.5" as="sourcePoint" />
            <mxPoint x="1610" y="737.5" as="targetPoint" />
          </mxGeometry>
        </mxCell>
        <mxCell id="ZLoV1CHloqVsXlXET13_-53" value="" style="endArrow=none;html=1;rounded=0;strokeColor=#DDA15E;fontColor=default;fillColor=#BC6C25;labelBackgroundColor=none;" edge="1" parent="1" source="ZLoV1CHloqVsXlXET13_-41">
          <mxGeometry width="50" height="50" relative="1" as="geometry">
            <mxPoint x="1490" y="747.5" as="sourcePoint" />
            <mxPoint x="1540" y="697.5" as="targetPoint" />
          </mxGeometry>
        </mxCell>
        <mxCell id="ZLoV1CHloqVsXlXET13_-54" value="" style="endArrow=none;html=1;rounded=0;strokeColor=#DDA15E;fontColor=default;fillColor=#BC6C25;labelBackgroundColor=none;" edge="1" parent="1">
          <mxGeometry width="50" height="50" relative="1" as="geometry">
            <mxPoint x="1460" y="727.5" as="sourcePoint" />
            <mxPoint x="1495" y="697.5" as="targetPoint" />
          </mxGeometry>
        </mxCell>
        <mxCell id="ZLoV1CHloqVsXlXET13_-55" value="deposit date" style="ellipse;whiteSpace=wrap;html=1;strokeColor=#DDA15E;fontColor=#FEFAE0;fillColor=#BC6C25;labelBackgroundColor=none;" vertex="1" parent="1">
          <mxGeometry x="771.25" y="660" width="60" height="47.5" as="geometry" />
        </mxCell>
        <mxCell id="ZLoV1CHloqVsXlXET13_-57" value="&lt;u&gt;gold bank id&lt;/u&gt;" style="ellipse;whiteSpace=wrap;html=1;strokeColor=#DDA15E;fontColor=#FEFAE0;fillColor=#BC6C25;labelBackgroundColor=none;" vertex="1" parent="1">
          <mxGeometry x="896.25" y="672.5" width="70" height="52.5" as="geometry" />
        </mxCell>
        <mxCell id="ZLoV1CHloqVsXlXET13_-58" value="user id" style="ellipse;whiteSpace=wrap;html=1;strokeColor=#DDA15E;fontColor=#FEFAE0;fillColor=#BC6C25;labelBackgroundColor=none;" vertex="1" parent="1">
          <mxGeometry x="931.25" y="766.25" width="60" height="42.5" as="geometry" />
        </mxCell>
        <mxCell id="ZLoV1CHloqVsXlXET13_-59" value="gold amount" style="ellipse;whiteSpace=wrap;html=1;strokeColor=#DDA15E;fontColor=#FEFAE0;fillColor=#BC6C25;labelBackgroundColor=none;" vertex="1" parent="1">
          <mxGeometry x="801.25" y="807.5" width="65" height="50" as="geometry" />
        </mxCell>
        <mxCell id="ZLoV1CHloqVsXlXET13_-61" value="current value" style="ellipse;whiteSpace=wrap;html=1;strokeColor=#DDA15E;fontColor=#FEFAE0;fillColor=#BC6C25;labelBackgroundColor=none;" vertex="1" parent="1">
          <mxGeometry x="671.25" y="737.5" width="80" height="50" as="geometry" />
        </mxCell>
        <mxCell id="ZLoV1CHloqVsXlXET13_-62" value="" style="endArrow=none;html=1;rounded=0;strokeColor=#DDA15E;fontColor=default;fillColor=#BC6C25;exitX=1;exitY=0;exitDx=0;exitDy=0;labelBackgroundColor=none;" edge="1" parent="1" source="xgcp_vtnHsurbQkd6DjJ-5">
          <mxGeometry width="50" height="50" relative="1" as="geometry">
            <mxPoint x="866.25" y="767.5" as="sourcePoint" />
            <mxPoint x="916.25" y="717.5" as="targetPoint" />
          </mxGeometry>
        </mxCell>
        <mxCell id="ZLoV1CHloqVsXlXET13_-63" value="" style="endArrow=none;html=1;rounded=0;strokeColor=#DDA15E;fontColor=default;fillColor=#BC6C25;exitX=1;exitY=0.75;exitDx=0;exitDy=0;labelBackgroundColor=none;" edge="1" parent="1" source="xgcp_vtnHsurbQkd6DjJ-5">
          <mxGeometry width="50" height="50" relative="1" as="geometry">
            <mxPoint x="881.25" y="837.5" as="sourcePoint" />
            <mxPoint x="931.25" y="787.5" as="targetPoint" />
          </mxGeometry>
        </mxCell>
        <mxCell id="ZLoV1CHloqVsXlXET13_-64" value="" style="endArrow=none;html=1;rounded=0;strokeColor=#DDA15E;fontColor=default;fillColor=#BC6C25;labelBackgroundColor=none;" edge="1" parent="1" source="ZLoV1CHloqVsXlXET13_-59">
          <mxGeometry width="50" height="50" relative="1" as="geometry">
            <mxPoint x="791.25" y="827.5" as="sourcePoint" />
            <mxPoint x="841.25" y="777.5" as="targetPoint" />
          </mxGeometry>
        </mxCell>
        <mxCell id="ZLoV1CHloqVsXlXET13_-65" value="" style="endArrow=none;html=1;rounded=0;strokeColor=#DDA15E;fontColor=default;fillColor=#BC6C25;exitX=0.25;exitY=0;exitDx=0;exitDy=0;labelBackgroundColor=none;" edge="1" parent="1" source="xgcp_vtnHsurbQkd6DjJ-5">
          <mxGeometry width="50" height="50" relative="1" as="geometry">
            <mxPoint x="751.25" y="757.5" as="sourcePoint" />
            <mxPoint x="801.25" y="707.5" as="targetPoint" />
          </mxGeometry>
        </mxCell>
        <mxCell id="ZLoV1CHloqVsXlXET13_-66" value="" style="endArrow=none;html=1;rounded=0;strokeColor=#DDA15E;fontColor=default;fillColor=#BC6C25;exitX=1;exitY=0.5;exitDx=0;exitDy=0;labelBackgroundColor=none;" edge="1" parent="1" source="ZLoV1CHloqVsXlXET13_-61">
          <mxGeometry width="50" height="50" relative="1" as="geometry">
            <mxPoint x="746.25" y="812.5" as="sourcePoint" />
            <mxPoint x="796.25" y="762.5" as="targetPoint" />
          </mxGeometry>
        </mxCell>
        <mxCell id="ZLoV1CHloqVsXlXET13_-68" value="&lt;u&gt;price id&lt;/u&gt;" style="ellipse;whiteSpace=wrap;html=1;strokeColor=#DDA15E;fontColor=#FEFAE0;fillColor=#BC6C25;labelBackgroundColor=none;" vertex="1" parent="1">
          <mxGeometry x="826.25" y="380" width="55" height="50" as="geometry" />
        </mxCell>
        <mxCell id="ZLoV1CHloqVsXlXET13_-69" value="date" style="ellipse;whiteSpace=wrap;html=1;strokeColor=#DDA15E;fontColor=#FEFAE0;fillColor=#BC6C25;labelBackgroundColor=none;" vertex="1" parent="1">
          <mxGeometry x="733.75" y="400" width="50" height="50" as="geometry" />
        </mxCell>
        <mxCell id="ZLoV1CHloqVsXlXET13_-70" value="gold per gram" style="ellipse;whiteSpace=wrap;html=1;strokeColor=#DDA15E;fontColor=#FEFAE0;fillColor=#BC6C25;labelBackgroundColor=none;" vertex="1" parent="1">
          <mxGeometry x="926.25" y="390" width="65" height="50" as="geometry" />
        </mxCell>
        <mxCell id="ZLoV1CHloqVsXlXET13_-71" value="gold percoin" style="ellipse;whiteSpace=wrap;html=1;strokeColor=#DDA15E;fontColor=#FEFAE0;fillColor=#BC6C25;labelBackgroundColor=none;" vertex="1" parent="1">
          <mxGeometry x="966.25" y="460" width="60" height="50" as="geometry" />
        </mxCell>
        <mxCell id="ZLoV1CHloqVsXlXET13_-72" value="" style="endArrow=none;html=1;rounded=0;strokeColor=#DDA15E;fontColor=default;fillColor=#BC6C25;exitX=1;exitY=0;exitDx=0;exitDy=0;labelBackgroundColor=none;" edge="1" parent="1" source="xgcp_vtnHsurbQkd6DjJ-9">
          <mxGeometry width="50" height="50" relative="1" as="geometry">
            <mxPoint x="888.75" y="480" as="sourcePoint" />
            <mxPoint x="938.75" y="430" as="targetPoint" />
          </mxGeometry>
        </mxCell>
        <mxCell id="ZLoV1CHloqVsXlXET13_-73" value="" style="endArrow=none;html=1;rounded=0;strokeColor=#DDA15E;fontColor=default;fillColor=#BC6C25;exitX=0.4;exitY=0;exitDx=0;exitDy=0;exitPerimeter=0;labelBackgroundColor=none;" edge="1" parent="1" source="xgcp_vtnHsurbQkd6DjJ-9">
          <mxGeometry width="50" height="50" relative="1" as="geometry">
            <mxPoint x="806.25" y="480" as="sourcePoint" />
            <mxPoint x="856.25" y="430" as="targetPoint" />
          </mxGeometry>
        </mxCell>
        <mxCell id="ZLoV1CHloqVsXlXET13_-74" value="" style="endArrow=none;html=1;rounded=0;strokeColor=#DDA15E;fontColor=default;fillColor=#BC6C25;exitX=1;exitY=1;exitDx=0;exitDy=0;labelBackgroundColor=none;" edge="1" parent="1" source="ZLoV1CHloqVsXlXET13_-69">
          <mxGeometry width="50" height="50" relative="1" as="geometry">
            <mxPoint x="756.25" y="510" as="sourcePoint" />
            <mxPoint x="806.25" y="460" as="targetPoint" />
          </mxGeometry>
        </mxCell>
        <mxCell id="ZLoV1CHloqVsXlXET13_-75" value="" style="endArrow=none;html=1;rounded=0;strokeColor=#DDA15E;fontColor=default;fillColor=#BC6C25;exitX=1;exitY=1;exitDx=0;exitDy=0;labelBackgroundColor=none;" edge="1" parent="1" source="xgcp_vtnHsurbQkd6DjJ-9">
          <mxGeometry width="50" height="50" relative="1" as="geometry">
            <mxPoint x="916.25" y="530" as="sourcePoint" />
            <mxPoint x="966.25" y="480" as="targetPoint" />
          </mxGeometry>
        </mxCell>
        <mxCell id="ZLoV1CHloqVsXlXET13_-77" value="محاسبه شدن" style="rhombus;whiteSpace=wrap;html=1;strokeColor=#DDA15E;fontColor=#FEFAE0;fillColor=#BC6C25;labelBackgroundColor=none;" vertex="1" parent="1">
          <mxGeometry x="816.25" y="540" width="80" height="80" as="geometry" />
        </mxCell>
        <mxCell id="ZLoV1CHloqVsXlXET13_-78" value="" style="endArrow=none;html=1;rounded=0;strokeColor=#DDA15E;fontColor=default;fillColor=#BC6C25;labelBackgroundColor=none;" edge="1" parent="1" source="ZLoV1CHloqVsXlXET13_-77">
          <mxGeometry width="50" height="50" relative="1" as="geometry">
            <mxPoint x="800" y="540" as="sourcePoint" />
            <mxPoint x="850" y="490" as="targetPoint" />
          </mxGeometry>
        </mxCell>
        <mxCell id="ZLoV1CHloqVsXlXET13_-149" value="&lt;span style=&quot;background-color: rgb(0, 0, 0);&quot;&gt;1&lt;/span&gt;" style="edgeLabel;html=1;align=center;verticalAlign=middle;resizable=0;points=[];strokeColor=#DDA15E;fontColor=#FEFAE0;fillColor=#BC6C25;" vertex="1" connectable="0" parent="ZLoV1CHloqVsXlXET13_-78">
          <mxGeometry x="-0.2502" y="-1" relative="1" as="geometry">
            <mxPoint as="offset" />
          </mxGeometry>
        </mxCell>
        <mxCell id="ZLoV1CHloqVsXlXET13_-79" value="" style="endArrow=none;html=1;rounded=0;strokeColor=#DDA15E;fontColor=default;fillColor=#BC6C25;exitX=0.5;exitY=0;exitDx=0;exitDy=0;labelBackgroundColor=none;" edge="1" parent="1" source="xgcp_vtnHsurbQkd6DjJ-5">
          <mxGeometry width="50" height="50" relative="1" as="geometry">
            <mxPoint x="810" y="665" as="sourcePoint" />
            <mxPoint x="860" y="615" as="targetPoint" />
          </mxGeometry>
        </mxCell>
        <mxCell id="ZLoV1CHloqVsXlXET13_-148" value="&lt;span style=&quot;background-color: rgb(0, 0, 0);&quot;&gt;1&lt;/span&gt;" style="edgeLabel;html=1;align=center;verticalAlign=middle;resizable=0;points=[];strokeColor=#DDA15E;fontColor=#FEFAE0;fillColor=#BC6C25;" vertex="1" connectable="0" parent="ZLoV1CHloqVsXlXET13_-79">
          <mxGeometry x="0.6091" y="1" relative="1" as="geometry">
            <mxPoint as="offset" />
          </mxGeometry>
        </mxCell>
        <mxCell id="ZLoV1CHloqVsXlXET13_-80" value="داشتن" style="rhombus;whiteSpace=wrap;html=1;strokeColor=#DDA15E;fontColor=#FEFAE0;fillColor=#BC6C25;labelBackgroundColor=none;" vertex="1" parent="1">
          <mxGeometry x="1020" y="820" width="80" height="80" as="geometry" />
        </mxCell>
        <mxCell id="ZLoV1CHloqVsXlXET13_-84" value="" style="endArrow=none;html=1;rounded=0;strokeColor=#DDA15E;align=center;verticalAlign=middle;fontFamily=Helvetica;fontSize=11;fontColor=default;labelBackgroundColor=none;edgeStyle=orthogonalEdgeStyle;fillColor=#BC6C25;exitX=0.879;exitY=0.027;exitDx=0;exitDy=0;exitPerimeter=0;" edge="1" parent="1" source="xgcp_vtnHsurbQkd6DjJ-1">
          <mxGeometry width="50" height="50" relative="1" as="geometry">
            <mxPoint x="1011.25" y="940" as="sourcePoint" />
            <mxPoint x="1061.25" y="890" as="targetPoint" />
            <Array as="points">
              <mxPoint x="983" y="941" />
              <mxPoint x="1061" y="941" />
            </Array>
          </mxGeometry>
        </mxCell>
        <mxCell id="ZLoV1CHloqVsXlXET13_-86" value="" style="endArrow=none;html=1;rounded=0;strokeColor=#DDA15E;align=center;verticalAlign=middle;fontFamily=Helvetica;fontSize=11;fontColor=default;labelBackgroundColor=none;edgeStyle=orthogonalEdgeStyle;fillColor=#BC6C25;exitX=1;exitY=0.5;exitDx=0;exitDy=0;" edge="1" parent="1" source="xgcp_vtnHsurbQkd6DjJ-5">
          <mxGeometry width="50" height="50" relative="1" as="geometry">
            <mxPoint x="971" y="907.5" as="sourcePoint" />
            <mxPoint x="1021" y="857.5" as="targetPoint" />
          </mxGeometry>
        </mxCell>
        <mxCell id="ZLoV1CHloqVsXlXET13_-89" value="ثبت کردن" style="rhombus;whiteSpace=wrap;html=1;strokeColor=#DDA15E;fontColor=#FEFAE0;fillColor=#BC6C25;" vertex="1" parent="1">
          <mxGeometry x="1155" y="1035" width="80" height="80" as="geometry" />
        </mxCell>
        <mxCell id="ZLoV1CHloqVsXlXET13_-90" value="" style="endArrow=none;html=1;rounded=0;strokeColor=none;fontColor=#FEFAE0;edgeStyle=orthogonalEdgeStyle;fillColor=#BC6C25;entryX=0;entryY=1;entryDx=0;entryDy=0;" edge="1" parent="1" target="xgcp_vtnHsurbQkd6DjJ-3">
          <mxGeometry width="50" height="50" relative="1" as="geometry">
            <mxPoint x="1230" y="1079.5" as="sourcePoint" />
            <mxPoint x="1280" y="1029.5" as="targetPoint" />
          </mxGeometry>
        </mxCell>
        <mxCell id="ZLoV1CHloqVsXlXET13_-96" value="" style="endArrow=none;html=1;rounded=0;strokeColor=#DDA15E;fontColor=#FEFAE0;edgeStyle=orthogonalEdgeStyle;fillColor=#BC6C25;exitX=1;exitY=0.5;exitDx=0;exitDy=0;" edge="1" parent="1" source="xgcp_vtnHsurbQkd6DjJ-1">
          <mxGeometry width="50" height="50" relative="1" as="geometry">
            <mxPoint x="1109.5" y="1119.5" as="sourcePoint" />
            <mxPoint x="1159.5" y="1069.5" as="targetPoint" />
            <Array as="points">
              <mxPoint x="1160" y="1025" />
            </Array>
          </mxGeometry>
        </mxCell>
        <mxCell id="ZLoV1CHloqVsXlXET13_-140" value="&lt;span style=&quot;background-color: rgb(0, 0, 0);&quot;&gt;1&lt;/span&gt;" style="edgeLabel;html=1;align=center;verticalAlign=middle;resizable=0;points=[];strokeColor=#DDA15E;fontColor=#FEFAE0;fillColor=#BC6C25;" vertex="1" connectable="0" parent="ZLoV1CHloqVsXlXET13_-96">
          <mxGeometry x="0.8355" relative="1" as="geometry">
            <mxPoint as="offset" />
          </mxGeometry>
        </mxCell>
        <mxCell id="ZLoV1CHloqVsXlXET13_-97" value="" style="endArrow=none;html=1;rounded=0;strokeColor=#DDA15E;fontColor=#FEFAE0;edgeStyle=orthogonalEdgeStyle;fillColor=#BC6C25;exitX=0.126;exitY=1.027;exitDx=0;exitDy=0;exitPerimeter=0;entryX=1;entryY=0.5;entryDx=0;entryDy=0;" edge="1" parent="1" source="xgcp_vtnHsurbQkd6DjJ-3" target="ZLoV1CHloqVsXlXET13_-89">
          <mxGeometry width="50" height="50" relative="1" as="geometry">
            <mxPoint x="1149.5" y="1160" as="sourcePoint" />
            <mxPoint x="1199.5" y="1110" as="targetPoint" />
          </mxGeometry>
        </mxCell>
        <mxCell id="ZLoV1CHloqVsXlXET13_-139" value="&lt;span style=&quot;background-color: rgb(0, 0, 0);&quot;&gt;n&lt;/span&gt;" style="edgeLabel;html=1;align=center;verticalAlign=middle;resizable=0;points=[];strokeColor=#DDA15E;fontColor=#FEFAE0;fillColor=#BC6C25;" vertex="1" connectable="0" parent="ZLoV1CHloqVsXlXET13_-97">
          <mxGeometry x="0.176" y="1" relative="1" as="geometry">
            <mxPoint as="offset" />
          </mxGeometry>
        </mxCell>
        <mxCell id="ZLoV1CHloqVsXlXET13_-98" value="شامل بودن" style="rhombus;whiteSpace=wrap;html=1;strokeColor=#DDA15E;fontColor=#FEFAE0;fillColor=#BC6C25;" vertex="1" parent="1">
          <mxGeometry x="1560" y="1080" width="80" height="80" as="geometry" />
        </mxCell>
        <mxCell id="ZLoV1CHloqVsXlXET13_-99" value="" style="endArrow=none;html=1;rounded=0;strokeColor=#DDA15E;fontColor=#FEFAE0;edgeStyle=orthogonalEdgeStyle;fillColor=#BC6C25;exitX=1;exitY=0.75;exitDx=0;exitDy=0;entryX=0;entryY=0.5;entryDx=0;entryDy=0;entryPerimeter=0;" edge="1" parent="1" source="xgcp_vtnHsurbQkd6DjJ-3" target="ZLoV1CHloqVsXlXET13_-98">
          <mxGeometry width="50" height="50" relative="1" as="geometry">
            <mxPoint x="1509.5" y="1165" as="sourcePoint" />
            <mxPoint x="1560" y="1115" as="targetPoint" />
          </mxGeometry>
        </mxCell>
        <mxCell id="ZLoV1CHloqVsXlXET13_-137" value="&lt;span style=&quot;background-color: rgb(0, 0, 0);&quot;&gt;n&lt;/span&gt;" style="edgeLabel;html=1;align=center;verticalAlign=middle;resizable=0;points=[];strokeColor=#DDA15E;fontColor=#FEFAE0;fillColor=#BC6C25;" vertex="1" connectable="0" parent="ZLoV1CHloqVsXlXET13_-99">
          <mxGeometry x="-0.299" relative="1" as="geometry">
            <mxPoint as="offset" />
          </mxGeometry>
        </mxCell>
        <mxCell id="ZLoV1CHloqVsXlXET13_-100" value="" style="endArrow=none;html=1;rounded=0;strokeColor=#DDA15E;fontColor=#FEFAE0;edgeStyle=orthogonalEdgeStyle;fillColor=#BC6C25;exitX=1;exitY=0.25;exitDx=0;exitDy=0;" edge="1" parent="1" source="xgcp_vtnHsurbQkd6DjJ-2">
          <mxGeometry width="50" height="50" relative="1" as="geometry">
            <mxPoint x="1550" y="1204.75" as="sourcePoint" />
            <mxPoint x="1600" y="1154.75" as="targetPoint" />
          </mxGeometry>
        </mxCell>
        <mxCell id="ZLoV1CHloqVsXlXET13_-138" value="&lt;span style=&quot;background-color: rgb(0, 0, 0);&quot;&gt;m&lt;/span&gt;" style="edgeLabel;html=1;align=center;verticalAlign=middle;resizable=0;points=[];strokeColor=#DDA15E;fontColor=#FEFAE0;fillColor=#BC6C25;" vertex="1" connectable="0" parent="ZLoV1CHloqVsXlXET13_-100">
          <mxGeometry x="0.7397" y="-1" relative="1" as="geometry">
            <mxPoint as="offset" />
          </mxGeometry>
        </mxCell>
        <mxCell id="ZLoV1CHloqVsXlXET13_-101" value="ارتباط داشتن" style="rhombus;whiteSpace=wrap;html=1;strokeColor=#DDA15E;fontColor=#FEFAE0;fillColor=#BC6C25;" vertex="1" parent="1">
          <mxGeometry x="1580" y="820" width="80" height="80" as="geometry" />
        </mxCell>
        <mxCell id="ZLoV1CHloqVsXlXET13_-102" value="" style="endArrow=none;html=1;rounded=0;strokeColor=#DDA15E;fontColor=#FEFAE0;edgeStyle=orthogonalEdgeStyle;fillColor=#BC6C25;exitX=1;exitY=0.5;exitDx=0;exitDy=0;" edge="1" parent="1" source="xgcp_vtnHsurbQkd6DjJ-3">
          <mxGeometry width="50" height="50" relative="1" as="geometry">
            <mxPoint x="1529.5" y="907.5" as="sourcePoint" />
            <mxPoint x="1580" y="860" as="targetPoint" />
          </mxGeometry>
        </mxCell>
        <mxCell id="ZLoV1CHloqVsXlXET13_-136" value="&lt;span style=&quot;background-color: rgb(0, 0, 0);&quot;&gt;1&lt;/span&gt;" style="edgeLabel;html=1;align=center;verticalAlign=middle;resizable=0;points=[];strokeColor=#DDA15E;fontColor=#FEFAE0;fillColor=#BC6C25;" vertex="1" connectable="0" parent="ZLoV1CHloqVsXlXET13_-102">
          <mxGeometry x="-0.0975" y="-2" relative="1" as="geometry">
            <mxPoint as="offset" />
          </mxGeometry>
        </mxCell>
        <mxCell id="ZLoV1CHloqVsXlXET13_-103" value="" style="endArrow=none;html=1;rounded=0;strokeColor=#DDA15E;fontColor=#FEFAE0;edgeStyle=orthogonalEdgeStyle;fillColor=#BC6C25;" edge="1" parent="1">
          <mxGeometry width="50" height="50" relative="1" as="geometry">
            <mxPoint x="1614.5" y="819.5" as="sourcePoint" />
            <mxPoint x="1520" y="700" as="targetPoint" />
          </mxGeometry>
        </mxCell>
        <mxCell id="ZLoV1CHloqVsXlXET13_-135" value="&lt;span style=&quot;background-color: rgb(0, 0, 0);&quot;&gt;n&lt;/span&gt;" style="edgeLabel;html=1;align=center;verticalAlign=middle;resizable=0;points=[];strokeColor=#DDA15E;fontColor=#FEFAE0;fillColor=#BC6C25;" vertex="1" connectable="0" parent="ZLoV1CHloqVsXlXET13_-103">
          <mxGeometry x="0.6635" relative="1" as="geometry">
            <mxPoint as="offset" />
          </mxGeometry>
        </mxCell>
        <mxCell id="ZLoV1CHloqVsXlXET13_-104" value="ارسال کردن" style="rhombus;whiteSpace=wrap;html=1;strokeColor=#DDA15E;fontColor=#FEFAE0;fillColor=#BC6C25;" vertex="1" parent="1">
          <mxGeometry x="866.25" y="1140" width="80" height="80" as="geometry" />
        </mxCell>
        <mxCell id="ZLoV1CHloqVsXlXET13_-105" value="" style="endArrow=none;html=1;rounded=0;strokeColor=#DDA15E;fontColor=#FEFAE0;edgeStyle=orthogonalEdgeStyle;fillColor=#BC6C25;entryX=0.25;entryY=1;entryDx=0;entryDy=0;" edge="1" parent="1" target="xgcp_vtnHsurbQkd6DjJ-1">
          <mxGeometry width="50" height="50" relative="1" as="geometry">
            <mxPoint x="906.25" y="1139.5" as="sourcePoint" />
            <mxPoint x="956.25" y="1089.5" as="targetPoint" />
          </mxGeometry>
        </mxCell>
        <mxCell id="ZLoV1CHloqVsXlXET13_-142" value="&lt;span style=&quot;background-color: rgb(0, 0, 0);&quot;&gt;1&lt;/span&gt;" style="edgeLabel;html=1;align=center;verticalAlign=middle;resizable=0;points=[];strokeColor=#DDA15E;fontColor=#FEFAE0;fillColor=#BC6C25;" vertex="1" connectable="0" parent="ZLoV1CHloqVsXlXET13_-105">
          <mxGeometry x="-0.2584" relative="1" as="geometry">
            <mxPoint as="offset" />
          </mxGeometry>
        </mxCell>
        <mxCell id="ZLoV1CHloqVsXlXET13_-106" value="" style="endArrow=none;html=1;rounded=0;strokeColor=#DDA15E;fontColor=#FEFAE0;edgeStyle=orthogonalEdgeStyle;fillColor=#BC6C25;exitX=0.75;exitY=0;exitDx=0;exitDy=0;" edge="1" parent="1" source="xgcp_vtnHsurbQkd6DjJ-8">
          <mxGeometry width="50" height="50" relative="1" as="geometry">
            <mxPoint x="856" y="1264.5" as="sourcePoint" />
            <mxPoint x="906" y="1214.5" as="targetPoint" />
          </mxGeometry>
        </mxCell>
        <mxCell id="ZLoV1CHloqVsXlXET13_-141" value="&lt;span style=&quot;background-color: rgb(0, 0, 0);&quot;&gt;n&lt;/span&gt;" style="edgeLabel;html=1;align=center;verticalAlign=middle;resizable=0;points=[];strokeColor=#DDA15E;fontColor=#FEFAE0;fillColor=#BC6C25;" vertex="1" connectable="0" parent="ZLoV1CHloqVsXlXET13_-106">
          <mxGeometry x="0.1638" relative="1" as="geometry">
            <mxPoint as="offset" />
          </mxGeometry>
        </mxCell>
        <mxCell id="ZLoV1CHloqVsXlXET13_-107" value="داشتن" style="rhombus;whiteSpace=wrap;html=1;strokeColor=#DDA15E;fontColor=#FEFAE0;fillColor=#BC6C25;" vertex="1" parent="1">
          <mxGeometry x="565" y="1140" width="80" height="80" as="geometry" />
        </mxCell>
        <mxCell id="ZLoV1CHloqVsXlXET13_-108" value="" style="endArrow=none;html=1;rounded=0;strokeColor=#DDA15E;fontColor=#FEFAE0;edgeStyle=orthogonalEdgeStyle;fillColor=#BC6C25;entryX=0;entryY=0.5;entryDx=0;entryDy=0;" edge="1" parent="1" target="xgcp_vtnHsurbQkd6DjJ-1">
          <mxGeometry width="50" height="50" relative="1" as="geometry">
            <mxPoint x="640" y="1179.5" as="sourcePoint" />
            <mxPoint x="690" y="1129.5" as="targetPoint" />
          </mxGeometry>
        </mxCell>
        <mxCell id="ZLoV1CHloqVsXlXET13_-111" value="&lt;span style=&quot;background-color: rgb(0, 0, 0);&quot;&gt;1&lt;/span&gt;" style="edgeLabel;html=1;align=center;verticalAlign=middle;resizable=0;points=[];strokeColor=#DDA15E;fontColor=#FEFAE0;fillColor=#BC6C25;" vertex="1" connectable="0" parent="ZLoV1CHloqVsXlXET13_-108">
          <mxGeometry x="0.6119" y="-1" relative="1" as="geometry">
            <mxPoint as="offset" />
          </mxGeometry>
        </mxCell>
        <mxCell id="ZLoV1CHloqVsXlXET13_-109" value="" style="endArrow=none;html=1;rounded=0;strokeColor=#DDA15E;fontColor=#FEFAE0;edgeStyle=orthogonalEdgeStyle;fillColor=#BC6C25;" edge="1" parent="1">
          <mxGeometry width="50" height="50" relative="1" as="geometry">
            <mxPoint x="604.5" y="1140" as="sourcePoint" />
            <mxPoint x="610" y="1090" as="targetPoint" />
          </mxGeometry>
        </mxCell>
        <mxCell id="ZLoV1CHloqVsXlXET13_-112" value="&lt;span style=&quot;background-color: rgb(0, 0, 0);&quot;&gt;1&lt;/span&gt;" style="edgeLabel;html=1;align=center;verticalAlign=middle;resizable=0;points=[];strokeColor=#DDA15E;fontColor=#FEFAE0;fillColor=#BC6C25;" vertex="1" connectable="0" parent="ZLoV1CHloqVsXlXET13_-109">
          <mxGeometry x="0.5728" relative="1" as="geometry">
            <mxPoint as="offset" />
          </mxGeometry>
        </mxCell>
        <mxCell id="ZLoV1CHloqVsXlXET13_-113" value="شامل بودن" style="rhombus;whiteSpace=wrap;html=1;strokeColor=#DDA15E;fontColor=#FEFAE0;fillColor=#BC6C25;" vertex="1" parent="1">
          <mxGeometry x="1075" y="1430" width="80" height="80" as="geometry" />
        </mxCell>
        <mxCell id="ZLoV1CHloqVsXlXET13_-114" value="" style="endArrow=none;html=1;rounded=0;strokeColor=#DDA15E;fontColor=#FEFAE0;edgeStyle=orthogonalEdgeStyle;fillColor=#BC6C25;entryX=0.5;entryY=1;entryDx=0;entryDy=0;" edge="1" parent="1" target="xgcp_vtnHsurbQkd6DjJ-2">
          <mxGeometry width="50" height="50" relative="1" as="geometry">
            <mxPoint x="1155" y="1470" as="sourcePoint" />
            <mxPoint x="1205" y="1420" as="targetPoint" />
          </mxGeometry>
        </mxCell>
        <mxCell id="ZLoV1CHloqVsXlXET13_-115" value="&lt;span style=&quot;background-color: rgb(0, 0, 0);&quot;&gt;m&lt;/span&gt;" style="edgeLabel;html=1;align=center;verticalAlign=middle;resizable=0;points=[];strokeColor=#DDA15E;fontColor=#FEFAE0;fillColor=#BC6C25;" vertex="1" connectable="0" parent="ZLoV1CHloqVsXlXET13_-114">
          <mxGeometry x="-0.8392" y="-2" relative="1" as="geometry">
            <mxPoint as="offset" />
          </mxGeometry>
        </mxCell>
        <mxCell id="ZLoV1CHloqVsXlXET13_-116" value="" style="endArrow=none;html=1;rounded=0;strokeColor=#DDA15E;fontColor=#FEFAE0;edgeStyle=orthogonalEdgeStyle;fillColor=#BC6C25;" edge="1" parent="1">
          <mxGeometry width="50" height="50" relative="1" as="geometry">
            <mxPoint x="560" y="1470" as="sourcePoint" />
            <mxPoint x="1076" y="1470" as="targetPoint" />
          </mxGeometry>
        </mxCell>
        <mxCell id="ZLoV1CHloqVsXlXET13_-118" value="&lt;span style=&quot;background-color: rgb(0, 0, 0);&quot;&gt;n&lt;/span&gt;" style="edgeLabel;html=1;align=center;verticalAlign=middle;resizable=0;points=[];strokeColor=#DDA15E;fontColor=#FEFAE0;fillColor=#BC6C25;" vertex="1" connectable="0" parent="ZLoV1CHloqVsXlXET13_-116">
          <mxGeometry x="0.8318" y="-3" relative="1" as="geometry">
            <mxPoint as="offset" />
          </mxGeometry>
        </mxCell>
        <mxCell id="ZLoV1CHloqVsXlXET13_-117" value="" style="endArrow=none;html=1;rounded=0;strokeColor=#DDA15E;fontColor=#FEFAE0;edgeStyle=orthogonalEdgeStyle;fillColor=#BC6C25;entryX=0;entryY=1;entryDx=0;entryDy=0;" edge="1" parent="1" target="xgcp_vtnHsurbQkd6DjJ-7">
          <mxGeometry width="50" height="50" relative="1" as="geometry">
            <mxPoint x="560" y="1471" as="sourcePoint" />
            <mxPoint x="554.5" y="1420" as="targetPoint" />
          </mxGeometry>
        </mxCell>
        <mxCell id="ZLoV1CHloqVsXlXET13_-119" value="دیدن دوره" style="rhombus;whiteSpace=wrap;html=1;strokeColor=#DDA15E;fontColor=#FEFAE0;fillColor=#BC6C25;" vertex="1" parent="1">
          <mxGeometry x="1180" y="747.5" width="80" height="80" as="geometry" />
        </mxCell>
        <mxCell id="ZLoV1CHloqVsXlXET13_-120" value="" style="endArrow=none;html=1;rounded=0;strokeColor=#DDA15E;fontColor=#FEFAE0;edgeStyle=orthogonalEdgeStyle;fillColor=#BC6C25;exitX=1;exitY=0.25;exitDx=0;exitDy=0;" edge="1" parent="1" source="xgcp_vtnHsurbQkd6DjJ-1">
          <mxGeometry width="50" height="50" relative="1" as="geometry">
            <mxPoint x="1175" y="870" as="sourcePoint" />
            <mxPoint x="1225" y="820" as="targetPoint" />
          </mxGeometry>
        </mxCell>
        <mxCell id="ZLoV1CHloqVsXlXET13_-123" value="&lt;span style=&quot;background-color: rgb(0, 0, 0);&quot;&gt;n&lt;/span&gt;" style="edgeLabel;html=1;align=center;verticalAlign=middle;resizable=0;points=[];strokeColor=#DDA15E;fontColor=#FEFAE0;fillColor=#BC6C25;" vertex="1" connectable="0" parent="ZLoV1CHloqVsXlXET13_-120">
          <mxGeometry x="0.8193" relative="1" as="geometry">
            <mxPoint as="offset" />
          </mxGeometry>
        </mxCell>
        <mxCell id="ZLoV1CHloqVsXlXET13_-121" value="" style="endArrow=none;html=1;rounded=0;strokeColor=#DDA15E;fontColor=#FEFAE0;edgeStyle=orthogonalEdgeStyle;fillColor=#BC6C25;entryX=0.92;entryY=1.003;entryDx=0;entryDy=0;entryPerimeter=0;" edge="1" parent="1" target="xgcp_vtnHsurbQkd6DjJ-6">
          <mxGeometry width="50" height="50" relative="1" as="geometry">
            <mxPoint x="1225" y="747.5" as="sourcePoint" />
            <mxPoint x="1275" y="697.5" as="targetPoint" />
          </mxGeometry>
        </mxCell>
        <mxCell id="ZLoV1CHloqVsXlXET13_-122" value="&lt;span style=&quot;background-color: rgb(0, 0, 0);&quot;&gt;m&lt;/span&gt;" style="edgeLabel;html=1;align=center;verticalAlign=middle;resizable=0;points=[];strokeColor=#DDA15E;fontColor=#FEFAE0;fillColor=#BC6C25;" vertex="1" connectable="0" parent="ZLoV1CHloqVsXlXET13_-121">
          <mxGeometry x="0.5981" y="-1" relative="1" as="geometry">
            <mxPoint as="offset" />
          </mxGeometry>
        </mxCell>
        <mxCell id="ZLoV1CHloqVsXlXET13_-124" value="تعلق داشتن" style="rhombus;whiteSpace=wrap;html=1;strokeColor=#DDA15E;fontColor=#FEFAE0;fillColor=#BC6C25;" vertex="1" parent="1">
          <mxGeometry x="1630" y="1210" width="80" height="80" as="geometry" />
        </mxCell>
        <mxCell id="ZLoV1CHloqVsXlXET13_-125" value="" style="endArrow=none;html=1;rounded=0;strokeColor=#DDA15E;fontColor=#FEFAE0;edgeStyle=orthogonalEdgeStyle;fillColor=#BC6C25;exitX=0;exitY=0.5;exitDx=0;exitDy=0;" edge="1" parent="1" source="xgcp_vtnHsurbQkd6DjJ-4">
          <mxGeometry width="50" height="50" relative="1" as="geometry">
            <mxPoint x="1659.5" y="1299.5" as="sourcePoint" />
            <mxPoint x="1709.5" y="1249.5" as="targetPoint" />
          </mxGeometry>
        </mxCell>
        <mxCell id="ZLoV1CHloqVsXlXET13_-126" value="&lt;span style=&quot;background-color: rgb(0, 0, 0);&quot;&gt;n&lt;/span&gt;" style="edgeLabel;html=1;align=center;verticalAlign=middle;resizable=0;points=[];strokeColor=#DDA15E;fontColor=#FEFAE0;fillColor=#BC6C25;" vertex="1" connectable="0" parent="ZLoV1CHloqVsXlXET13_-125">
          <mxGeometry x="-0.5309" relative="1" as="geometry">
            <mxPoint as="offset" />
          </mxGeometry>
        </mxCell>
        <mxCell id="ZLoV1CHloqVsXlXET13_-127" value="" style="endArrow=none;html=1;rounded=0;strokeColor=#DDA15E;fontColor=#FEFAE0;edgeStyle=orthogonalEdgeStyle;fillColor=#BC6C25;exitX=1;exitY=0.5;exitDx=0;exitDy=0;" edge="1" parent="1" source="xgcp_vtnHsurbQkd6DjJ-2">
          <mxGeometry width="50" height="50" relative="1" as="geometry">
            <mxPoint x="1579.5" y="1299.5" as="sourcePoint" />
            <mxPoint x="1629.5" y="1249.5" as="targetPoint" />
          </mxGeometry>
        </mxCell>
        <mxCell id="ZLoV1CHloqVsXlXET13_-128" value="&lt;span style=&quot;background-color: rgb(0, 0, 0);&quot;&gt;1&lt;/span&gt;" style="edgeLabel;html=1;align=center;verticalAlign=middle;resizable=0;points=[];strokeColor=#DDA15E;fontColor=#FEFAE0;fillColor=#BC6C25;" vertex="1" connectable="0" parent="ZLoV1CHloqVsXlXET13_-127">
          <mxGeometry x="0.8836" relative="1" as="geometry">
            <mxPoint as="offset" />
          </mxGeometry>
        </mxCell>
        <mxCell id="ZLoV1CHloqVsXlXET13_-129" value="انجام دادن" style="rhombus;whiteSpace=wrap;html=1;strokeColor=#DDA15E;fontColor=#FEFAE0;fillColor=#BC6C25;" vertex="1" parent="1">
          <mxGeometry x="1405" y="807.5" width="65" height="72.5" as="geometry" />
        </mxCell>
        <mxCell id="ZLoV1CHloqVsXlXET13_-130" value="" style="endArrow=none;html=1;rounded=0;strokeColor=#DDA15E;fontColor=#FEFAE0;edgeStyle=orthogonalEdgeStyle;fillColor=#BC6C25;entryX=0.25;entryY=1;entryDx=0;entryDy=0;" edge="1" parent="1" target="ZLoV1CHloqVsXlXET13_-40">
          <mxGeometry width="50" height="50" relative="1" as="geometry">
            <mxPoint x="1439.5" y="808.25" as="sourcePoint" />
            <mxPoint x="1489.5" y="758.25" as="targetPoint" />
          </mxGeometry>
        </mxCell>
        <mxCell id="ZLoV1CHloqVsXlXET13_-131" value="&lt;span style=&quot;background-color: rgb(0, 0, 0);&quot;&gt;n&lt;/span&gt;" style="edgeLabel;html=1;align=center;verticalAlign=middle;resizable=0;points=[];strokeColor=#DDA15E;fontColor=#FEFAE0;fillColor=#BC6C25;" vertex="1" connectable="0" parent="ZLoV1CHloqVsXlXET13_-130">
          <mxGeometry x="0.8535" relative="1" as="geometry">
            <mxPoint as="offset" />
          </mxGeometry>
        </mxCell>
        <mxCell id="ZLoV1CHloqVsXlXET13_-132" value="" style="endArrow=none;html=1;rounded=0;strokeColor=#DDA15E;fontColor=#FEFAE0;edgeStyle=orthogonalEdgeStyle;fillColor=#BC6C25;" edge="1" parent="1">
          <mxGeometry width="50" height="50" relative="1" as="geometry">
            <mxPoint x="1160" y="880" as="sourcePoint" />
            <mxPoint x="1404.5" y="840" as="targetPoint" />
          </mxGeometry>
        </mxCell>
        <mxCell id="ZLoV1CHloqVsXlXET13_-134" value="&lt;span style=&quot;background-color: rgb(0, 0, 0);&quot;&gt;1&lt;/span&gt;" style="edgeLabel;html=1;align=center;verticalAlign=middle;resizable=0;points=[];strokeColor=#DDA15E;fontColor=#FEFAE0;fillColor=#BC6C25;" vertex="1" connectable="0" parent="ZLoV1CHloqVsXlXET13_-132">
          <mxGeometry x="0.146" y="1" relative="1" as="geometry">
            <mxPoint as="offset" />
          </mxGeometry>
        </mxCell>
        <mxCell id="ZLoV1CHloqVsXlXET13_-133" value="" style="endArrow=none;html=1;rounded=0;strokeColor=#DDA15E;fontColor=#FEFAE0;edgeStyle=orthogonalEdgeStyle;fillColor=#BC6C25;exitX=1;exitY=0.75;exitDx=0;exitDy=0;" edge="1" parent="1" source="xgcp_vtnHsurbQkd6DjJ-1">
          <mxGeometry width="50" height="50" relative="1" as="geometry">
            <mxPoint x="1110" y="929.5" as="sourcePoint" />
            <mxPoint x="1160" y="879.5" as="targetPoint" />
          </mxGeometry>
        </mxCell>
        <mxCell id="ZLoV1CHloqVsXlXET13_-143" value="داشتن" style="rhombus;whiteSpace=wrap;html=1;strokeColor=#DDA15E;fontColor=#FEFAE0;fillColor=#BC6C25;" vertex="1" parent="1">
          <mxGeometry x="650" y="850" width="80" height="80" as="geometry" />
        </mxCell>
        <mxCell id="ZLoV1CHloqVsXlXET13_-144" value="" style="endArrow=none;html=1;rounded=0;strokeColor=#DDA15E;fontColor=#FEFAE0;edgeStyle=orthogonalEdgeStyle;fillColor=#BC6C25;entryX=0;entryY=1;entryDx=0;entryDy=0;" edge="1" parent="1" target="xgcp_vtnHsurbQkd6DjJ-5">
          <mxGeometry width="50" height="50" relative="1" as="geometry">
            <mxPoint x="730" y="890" as="sourcePoint" />
            <mxPoint x="780" y="840" as="targetPoint" />
          </mxGeometry>
        </mxCell>
        <mxCell id="ZLoV1CHloqVsXlXET13_-146" value="&lt;span style=&quot;background-color: rgb(0, 0, 0);&quot;&gt;1&lt;/span&gt;" style="edgeLabel;html=1;align=center;verticalAlign=middle;resizable=0;points=[];strokeColor=#DDA15E;fontColor=#FEFAE0;fillColor=#BC6C25;" vertex="1" connectable="0" parent="ZLoV1CHloqVsXlXET13_-144">
          <mxGeometry x="-0.6609" relative="1" as="geometry">
            <mxPoint as="offset" />
          </mxGeometry>
        </mxCell>
        <mxCell id="ZLoV1CHloqVsXlXET13_-145" value="" style="endArrow=none;html=1;rounded=0;strokeColor=#DDA15E;fontColor=#FEFAE0;edgeStyle=orthogonalEdgeStyle;fillColor=#BC6C25;" edge="1" parent="1">
          <mxGeometry width="50" height="50" relative="1" as="geometry">
            <mxPoint x="930" y="1040" as="sourcePoint" />
            <mxPoint x="695" y="924.5" as="targetPoint" />
          </mxGeometry>
        </mxCell>
        <mxCell id="ZLoV1CHloqVsXlXET13_-147" value="&lt;span style=&quot;background-color: rgb(0, 0, 0);&quot;&gt;1&lt;/span&gt;" style="edgeLabel;html=1;align=center;verticalAlign=middle;resizable=0;points=[];strokeColor=#DDA15E;fontColor=#FEFAE0;fillColor=#BC6C25;" vertex="1" connectable="0" parent="ZLoV1CHloqVsXlXET13_-145">
          <mxGeometry x="0.7803" y="1" relative="1" as="geometry">
            <mxPoint as="offset" />
          </mxGeometry>
        </mxCell>
      </root>
    </mxGraphModel>
  </diagram>
</mxfile>
